<?xml version="1.0" encoding="utf-8"?>
<svg xmlns="http://www.w3.org/2000/svg" width="200" height="200" viewBox="0 0 200 200">
  <path fill="#ff3a00" d="M92.855.25c-23.874 1.774-45.651 11.59-62.75 28.297C7.613 50.485-3.172 81.55.815 112.75c4.977 39.014 32.493 71.506 70.286 83.005 29.22 8.895 61.737 3.618 86.51-14.01 30.442-21.685 46.274-57.657 41.573-94.481-4.978-39.014-32.493-71.506-70.287-83.005C117.651.826 104.54-.626 92.855.25zm27.308 64.753c3.803.53 7.49 1.774 10.67 3.595 8.619 4.977 14.403 13.089 15.74 22.1l.253 1.658 1.221-.437c4.056-1.43 9.472-1.06 13.366.875 4.563 2.282 8.389 6.89 9.564 11.5.553 2.142.6 5.484.115 7.811-.184.876-.83 2.604-1.406 3.802-.944 1.89-1.405 2.512-3.41 4.494-2.512 2.512-4.425 3.71-7.628 4.747-1.498.484-2.074.53-8.411.6-3.734.045-15.901 0-27.032-.093l-20.256-.184-.438-.553c-.415-.53-.438-1.314-.438-28.805V67.814l.53-.483c.853-.807 4.863-2.005 8.112-2.42 1.544-.207 7.812-.138 9.448.092zm-26.57 7.512c.46.484.484.968 1.06 18.643l.576 18.136-.6 7.627c-.552 7.144-.621 7.65-1.082 8.02-1.13.898-3.434.76-4.171-.277-.346-.484-.461-1.66-.807-7.904-.392-7.005-.392-8.135 0-25.095.415-18.965.392-18.573 1.567-19.426.737-.53 2.811-.369 3.457.276zm-14.127 4.84c.461.391.484.945 1.176 16.2l.714 15.762-.737 7.627c-.53 5.761-.807 7.697-1.06 7.997-.784.875-3.273.806-3.849-.116-.23-.345-.507-2.811-.899-8.111l-.553-7.605.53-14.172c.3-7.789.53-14.817.53-15.624.023-1.935.438-2.35 2.305-2.35.945 0 1.498.115 1.843.392zm-14.15.161c.416.3.508 1.429 1.291 16.062l.853 15.762-.853 7.65c-.507 4.586-.968 7.766-1.152 7.997-.691.83-3.11.714-3.48-.162-.115-.276-.53-3.871-.898-7.996l-.692-7.49.669-14.632c.368-8.043.69-15.07.69-15.624 0-1.337.577-1.89 2.029-1.89.622 0 1.313.139 1.544.323zm-14.103 8.02c.346.253.53 2.027 1.383 12.074l.991 11.776-.99 7.697c-.9 7.028-1.038 7.742-1.499 8.134-.599.461-2.12.392-2.604-.138-.184-.185-.622-3.295-1.129-8.02l-.853-7.72.807-11.199c.46-6.152.83-11.406.83-11.683 0-.253.16-.645.368-.83.438-.437 2.143-.483 2.696-.092zM37.271 99.13c.116.162.738 2.535 1.337 5.3l1.106 4.978-1.106 4.931c-.622 2.696-1.198 5-1.29 5.093-.277.323-2.098.23-2.443-.115-.185-.161-.76-2.466-1.29-5.093l-.946-4.77.991-5.07c.715-3.71 1.083-5.138 1.36-5.3.53-.322 2.005-.276 2.281.046z"/>
</svg>
