<?xml version="1.0" encoding="utf-8"?>
<svg xmlns="http://www.w3.org/2000/svg" width="30" height="30" viewBox="0 0 30 30">
  <path fill="#fff" d="M15 0C6.73 0 0 6.73 0 15s6.696 15 15 15 15-6.696 15-15S23.27 0 15 0zm-1.848 20.424c0 .703-.77 1.239-1.782 1.239-1.011 0-1.782-.536-1.782-1.239V9.576c0-.703.77-1.239 1.782-1.239 1.011 0 1.782.536 1.782 1.239v10.848zm7.293 0c0 .703-.77 1.239-1.781 1.239-1.012 0-1.782-.536-1.782-1.239V9.576c0-.703.77-1.239 1.782-1.239 1.01 0 1.781.536 1.781 1.239v10.848z"/>
</svg>
